# xmcd
# 
# Track frame offsets:
#     150
#     24941
#     47391
#     70122
#     99294
#     133291
#     168721
#     208065
# 
# Disc length: 3067
# 
# Revision: 1
# Processed by: cddbd v1.5.2PL0 Copyright (c) Steve Scherf et al.
# Submitted via: BonkEnc v1.0.8
# 
DISCID=680bf908
DTITLE=Jason Buie - 2009 # Live at the Gator
DYEAR=2009
DGENRE=
TTITLE0=The Hustle is On
TTITLE1=I Got My Mojo Working
TTITLE2=Howlin' at My Darlin"
TTITLE3=Manic Depression
TTITLE4=Joe Louis
TTITLE5=Voodoo Child
TTITLE6=No Woman No Cry
TTITLE7=Boogie Woogie Thing
EXTD=
EXTT0=
EXTT1=
EXTT2=
EXTT3=
EXTT4=
EXTT5=
EXTT6=
EXTT7=
PLAYORDER=
